<svg xmlns="http://www.w3.org/2000/svg" xmlns:xlink="http://www.w3.org/1999/xlink" version="1.1" width="1000" height="1000" viewBox="0 0 1000 1000" xml:space="preserve">
<desc>Created with Fabric.js 3.5.0</desc>
<defs>
</defs>
<rect x="0" y="0" width="100%" height="100%" fill="#ffffff"/>
<g transform="matrix(49.5014 0 0 49.4182 501.2885 500.388)" id="896791">
<path style="stroke: none; stroke-width: 1; stroke-dasharray: none; stroke-linecap: butt; stroke-dashoffset: 0; stroke-linejoin: miter; stroke-miterlimit: 4; is-custom-font: none; font-file-url: none; fill: rgb(0,0,0); fill-rule: nonzero; opacity: 1;" vector-effect="non-scaling-stroke" transform=" translate(-12, -12.4989)" d="M 19.5 4 h -15 A 2.5 2.5 0 0 0 2 6.5 v 9 A 2.5 2.5 0 0 0 4.5 18 H 7 v 2.07 a 0.928 0.928 0 0 0 1.507 0.725 l 3.22 -2.576 A 1 1 0 0 1 12.35 18 h 7.15 a 2.5 2.5 0 0 0 2.5 -2.5 v -9 A 2.5 2.5 0 0 0 19.5 4 z m 1 11.5 a 1 1 0 0 1 -1 1 h -7.15 a 2.5 2.5 0 0 0 -1.56 0.548 L 8.5 18.879 V 17 a 0.5 0.5 0 0 0 -0.5 -0.5 H 4.5 a 1 1 0 0 1 -1 -1 v -9 a 1 1 0 0 1 1 -1 h 15 c 0.551 0 1 0.449 1 1 v 9 z M 9 11 a 1 1 0 1 1 -2 0 a 1 1 0 0 1 2 0 z m 4 0 a 1 1 0 1 1 -2 0 a 1 1 0 0 1 2 0 z m 4 0 a 1 1 0 1 1 -2 0 a 1 1 0 0 1 2 0 z" stroke-linecap="round"/>
</g>
</svg>